<?xml version="1.0" standalone="no"?><!DOCTYPE svg PUBLIC "-//W3C//DTD SVG 1.1//EN" "http://www.w3.org/Graphics/SVG/1.1/DTD/svg11.dtd"><svg t="1511681356601" class="icon" style="" viewBox="0 0 1024 1024" version="1.1" xmlns="http://www.w3.org/2000/svg" p-id="11483" xmlns:xlink="http://www.w3.org/1999/xlink" width="128" height="128"><defs><style type="text/css"></style></defs><path d="M742.619539 229.556044l-117.028571 0L625.590967 90.021978c20.254945-4.501099 33.758242-22.505495 33.758242-45.010989 0-24.756044-20.254945-45.010989-45.010989-45.010989L409.53822 0c-24.756044 0-45.010989 20.254945-45.010989 45.010989 0 22.505495 15.753846 40.50989 36.008791 45.010989l0 141.784615-117.028571 0c-38.259341 0-67.516484 31.507692-67.516484 67.516484l0 562.637363c0 38.259341 29.257143 67.516484 67.516484 67.516484l36.008791 0 0 27.006593c0 38.259341 31.507692 67.516484 67.516484 67.516484 38.259341 0 67.516484-31.509457 67.516484-67.516484l0-27.006593 114.778022 0 0 27.006593c0 38.259341 31.507692 67.516484 67.516484 67.516484 38.259341 0 67.516484-31.509457 67.516484-67.516484l0-27.006593 36.008791 0c38.259341 0 67.516484-31.509457 67.516484-67.516484l0-562.637363C810.136022 261.063736 780.87888 229.556044 742.619539 229.556044zM623.340418 411.850549c29.257143 0 54.014952 24.756044 54.014952 54.013187s-24.756044 54.013187-54.014952 54.013187c-29.255378 0-54.013187-24.754279-54.013187-54.013187C567.076682 434.356044 591.832726 411.850549 623.340418 411.850549zM465.801956 90.021978l92.272527 0 0 139.534066L465.801956 229.556044 465.801956 90.021978zM371.27888 819.2c-38.259341 0-69.767033-31.507692-69.767033-69.765268 0-38.261106 31.507692-69.767033 69.767033-69.767033 38.259341 0 69.767033 31.507692 69.767033 69.767033C441.045913 787.692308 409.53822 819.2 371.27888 819.2zM371.27888 553.6334l-56.263736-168.791209 148.536264-49.512088L519.815143 504.123077 371.27888 553.6334zM688.606352 758.435165c-4.501099 20.254945-15.753846 38.259341-33.758242 49.512088s-38.259341 15.753846-58.514286 11.252747c-42.76044-9.002198-69.765268-49.512088-60.764835-92.270762l20.254945-99.025941 153.037363 33.758242L688.606352 758.435165z" p-id="11484" fill="#1abc9c"></path></svg>